<svg xmlns="http://www.w3.org/2000/svg" xmlns:xlink="http://www.w3.org/1999/xlink" width="31.997" height="41.35" viewBox="0 0 31.997 41.35">
  <defs>
    <linearGradient id="linear-gradient" x1="1" x2="0" y2="1" gradientUnits="objectBoundingBox">
      <stop offset="0" stop-color="#29e7cd"/>
      <stop offset="1" stop-color="#4bb3fd"/>
    </linearGradient>
  </defs>
  <path id="love-story" d="M84.3,21.877c0,3.353-5.168,7.264-6.357,8.119-1.19-.855-6.36-4.763-6.36-8.119A3.346,3.346,0,0,1,77.6,19.86a.431.431,0,0,0,.687,0A3.345,3.345,0,0,1,84.3,21.877ZM89.887,7.733V40.027a1.293,1.293,0,0,1-1.292,1.292H66.86V8.163H66V41.327H62.554V8.163c-.595-.006-.487.012-.861-.015V41.31a4.1,4.1,0,0,1-3.8-4.082V4.18a4.1,4.1,0,0,1,4.091-4.2H89.452a.431.431,0,0,1,.306.736,3.973,3.973,0,0,0-1.886,3.355A3.885,3.885,0,0,0,89.68,7.362.466.466,0,0,1,89.887,7.733ZM88.272,7.3a4.578,4.578,0,0,1-.7-.982H65.814a.431.431,0,1,1,0-.861h21.4a4.459,4.459,0,0,1-.185-.96H62.153a.431.431,0,1,1,0-.861H87.032a4.689,4.689,0,0,1,.181-.956h-21.4a.431.431,0,1,1,0-.861H87.57a4.637,4.637,0,0,1,.7-.982H61.981a3.23,3.23,0,0,0-.289,6.447v0C61.96,7.311,60.056,7.3,88.272,7.3ZM70.494,13.371l1.549,1.347a.431.431,0,0,0,.713-.325V8.163h-.861v5.284l-1.119-.973a.432.432,0,0,0-.565,0l-1.119.973V8.163h-.861v6.229a.431.431,0,0,0,.713.325Zm14.668,8.506a4.212,4.212,0,0,0-4.207-4.207,4.166,4.166,0,0,0-3.012,1.27,4.208,4.208,0,0,0-7.22,2.937c0,4.226,6.694,8.81,6.979,9a.431.431,0,0,0,.483,0C78.469,30.686,85.162,26.1,85.162,21.877Z" transform="translate(-57.89 0.023)" fill="url(#linear-gradient)"/>
</svg>
