<svg xmlns="http://www.w3.org/2000/svg" xmlns:xlink="http://www.w3.org/1999/xlink" width="100" height="80" viewBox="0 0 100 80">
  <defs>
    <linearGradient id="linear-gradient" x1="1" x2="0" y2="0.945" gradientUnits="objectBoundingBox">
      <stop offset="0" stop-color="#29e7cd"/>
      <stop offset="1" stop-color="#4bb3fd"/>
    </linearGradient>
  </defs>
  <path id="Icon_material-pageview" data-name="Icon material-pageview" d="M50.5,31A12.5,12.5,0,1,0,63,43.5,12.5,12.5,0,0,0,50.5,31ZM93,6H13A10.029,10.029,0,0,0,3,16V76A10.029,10.029,0,0,0,13,86H93a10.029,10.029,0,0,0,10-10V16A10.029,10.029,0,0,0,93,6ZM76.95,77.05,62.4,62.5A22.171,22.171,0,0,1,50.45,66,22.645,22.645,0,1,1,69.5,55.45l14.55,14.5-7.1,7.1Z" transform="translate(-3 -6)" fill="url(#linear-gradient)"/>
</svg>
